<svg xmlns="http://www.w3.org/2000/svg">
  <symbol id="youtube" viewBox="0 0 16 16">
      <path d="M8.051 1.999h.089c.822.003 4.987.033 6.11.335a2.01 2.01 0 0 1 1.415 1.42c.101.38.172.883.22 1.402l.01.104.022.26.008.104c.065.914.073 1.77.074 1.957v.075c-.001.194-.01 1.108-.082 2.06l-.008.105-.009.104c-.05.572-.124 1.14-.235 1.558a2.01 2.01 0 0 1-1.415 1.42c-1.16.312-5.569.334-6.18.335h-.142c-.309 0-1.587-.006-2.927-.052l-.17-.006-.087-.004-.171-.007-.171-.007c-1.11-.049-2.167-.128-2.654-.26a2.01 2.01 0 0 1-1.415-1.419c-.111-.417-.185-.986-.235-1.558L.09 9.82l-.008-.104A31 31 0 0 1 0 7.68v-.123c.002-.215.01-.958.064-1.778l.007-.103.003-.052.008-.104.022-.26.01-.104c.048-.519.119-1.023.22-1.402a2.01 2.01 0 0 1 1.415-1.42c.487-.13 1.544-.21 2.654-.26l.17-.007.172-.006.086-.003.171-.007A100 100 0 0 1 7.858 2zM6.4 5.209v4.818l4.157-2.408z"/>
  </symbol>
  <symbol id="facebook" viewBox="0 0 16 16">
      <path d="M16 8.049c0-4.446-3.582-8.05-8-8.05C3.58 0-.002 3.603-.002 8.05c0 4.017 2.926 7.347 6.75 7.951v-5.625h-2.03V8.05H6.75V6.275c0-2.017 1.195-3.131 3.022-3.131.876 0 1.791.157 1.791.157v1.98h-1.009c-.993 0-1.303.621-1.303 1.258v1.51h2.218l-.354 2.326H9.25V16c3.824-.604 6.75-3.934 6.75-7.951"/>
  </symbol>
  <symbol id="twitter" viewBox="0 0 16 16">
      <path d="M5.026 15c6.038 0 9.341-5.003 9.341-9.334q.002-.211-.006-.422A6.7 6.7 0 0 0 16 3.542a6.7 6.7 0 0 1-1.889.518 3.3 3.3 0 0 0 1.447-1.817 6.5 6.5 0 0 1-2.087.793A3.286 3.286 0 0 0 7.875 6.03a9.32 9.32 0 0 1-6.767-3.429 3.29 3.29 0 0 0 1.018 4.382A3.3 3.3 0 0 1 .64 6.575v.045a3.29 3.29 0 0 0 2.632 3.218 3.2 3.2 0 0 1-.865.115 3 3 0 0 1-.614-.057 3.28 3.28 0 0 0 3.067 2.277A6.6 6.6 0 0 1 .78 13.58a6 6 0 0 1-.78-.045A9.34 9.34 0 0 0 5.026 15"/>
  </symbol>
  <symbol id="twitch" viewBox="0 0 16 16">
      <path d="M3.857 0 1 2.857v10.286h3.429V16l2.857-2.857H9.57L14.714 8V0zm9.714 7.429-2.285 2.285H9l-2 2v-2H4.429V1.143h9.142z"/>
      <path d="M11.857 3.143h-1.143V6.57h1.143zm-3.143 0H7.571V6.57h1.143z"/>
  </symbol>
  <symbol id="instagram" viewBox="0 0 16 16">
      <path d="M8 0C5.829 0 5.556.01 4.703.048 3.85.088 3.269.222 2.76.42a3.9 3.9 0 0 0-1.417.923A3.9 3.9 0 0 0 .42 2.76C.222 3.268.087 3.85.048 4.7.01 5.555 0 5.827 0 8.001c0 2.172.01 2.444.048 3.297.04.852.174 1.433.372 1.942.205.526.478.972.923 1.417.444.445.89.719 1.416.923.51.198 1.09.333 1.942.372C5.555 15.99 5.827 16 8 16s2.444-.01 3.298-.048c.851-.04 1.434-.174 1.943-.372a3.9 3.9 0 0 0 1.416-.923c.445-.445.718-.891.923-1.417.197-.509.332-1.09.372-1.942C15.99 10.445 16 10.173 16 8s-.01-2.445-.048-3.299c-.04-.851-.175-1.433-.372-1.941a3.9 3.9 0 0 0-.923-1.417A3.9 3.9 0 0 0 13.24.42c-.51-.198-1.092-.333-1.943-.372C10.443.01 10.172 0 7.998 0zm-.717 1.442h.718c2.136 0 2.389.007 3.232.046.78.035 1.204.166 1.486.275.373.145.64.319.92.599s.453.546.598.92c.11.281.24.705.275 1.485.039.843.047 1.096.047 3.231s-.008 2.389-.047 3.232c-.035.78-.166 1.203-.275 1.485a2.5 2.5 0 0 1-.599.919c-.28.28-.546.453-.92.598-.28.11-.704.24-1.485.276-.843.038-1.096.047-3.232.047s-2.39-.009-3.233-.047c-.78-.036-1.203-.166-1.485-.276a2.5 2.5 0 0 1-.92-.598 2.5 2.5 0 0 1-.6-.92c-.109-.281-.24-.705-.275-1.485-.038-.843-.046-1.096-.046-3.233s.008-2.388.046-3.231c.036-.78.166-1.204.276-1.486.145-.373.319-.64.599-.92s.546-.453.92-.598c.282-.11.705-.24 1.485-.276.738-.034 1.024-.044 2.515-.045zm4.988 1.328a.96.96 0 1 0 0 1.92.96.96 0 0 0 0-1.92m-4.27 1.122a4.109 4.109 0 1 0 0 8.217 4.109 4.109 0 0 0 0-8.217m0 1.441a2.667 2.667 0 1 1 0 5.334 2.667 2.667 0 0 1 0-5.334"/>
  </symbol>
  <symbol id="telegram" viewBox="0 0 16 16">
      <path d="M16 8A8 8 0 1 1 0 8a8 8 0 0 1 16 0M8.287 5.906q-1.168.486-4.666 2.01-.567.225-.595.442c-.03.243.275.339.69.47l.175.055c.408.133.958.288 1.243.294q.39.01.868-.32 3.269-2.206 3.374-2.23c.05-.012.12-.026.166.016s.042.12.037.141c-.03.129-1.227 1.241-1.846 1.817-.193.18-.33.307-.358.336a8 8 0 0 1-.188.186c-.38.366-.664.64.015 1.088.327.216.589.393.85.571.284.194.568.387.936.629q.14.092.27.187c.331.236.63.448.997.414.214-.02.435-.22.547-.82.265-1.417.786-4.486.906-5.751a1.4 1.4 0 0 0-.013-.315.34.34 0 0 0-.114-.217.53.53 0 0 0-.31-.093c-.3.005-.763.166-2.984 1.09"/>
  </symbol>
  <symbol id="saleLogo" viewBox="0 0 132 132">
      <path d="M115.368 48.2876L115.295 49.1105L115.825 49.7446L129.395 66L115.825 82.2554L115.295 82.8895L115.368 83.7124L117.256 105.186L97.277 109.94L96.4285 110.142L95.9991 110.901L85.5571 129.365L66.8205 120.936L65.9972 120.566L65.1748 120.938L46.4406 129.424L36.0009 110.964L35.5715 110.205L34.723 110.003L14.7433 105.248L16.6324 83.7119L16.7045 82.8893L16.1753 82.2554L2.60338 65.9977L16.1776 49.679L16.7043 49.0458L16.6324 48.2252L14.7437 26.6935L34.7177 21.9984L35.5699 21.798L36.0009 21.036L46.443 2.57227L65.1795 11.0011L66 11.3702L66.8205 11.0011L85.5548 2.57327L95.9978 21.0965L96.4269 21.8577L97.277 22.06L117.256 26.8143L115.368 48.2876Z" stroke="#F8F200" stroke-width="4"/>
      <path d="M54.3044 90.084L48.4707 84.2504C46.1373 81.9169 43.8038 81.9169 41.4704 84.2504L36.061 89.6598L38.3945 91.9932L43.8038 86.5838C44.5817 85.806 45.3524 85.799 46.1161 86.5626L46.1373 86.5838L42.0644 90.6568C40.1127 92.6084 40.0915 94.5388 42.0007 96.448C43.9806 98.4279 45.9464 98.442 47.898 96.4904L54.3044 90.084ZM44.3766 94.157C43.9948 93.7751 44.0018 93.3862 44.3978 92.9902L48.4707 88.9173L49.6375 90.084L45.5645 94.157C45.1686 94.5529 44.7726 94.5529 44.3766 94.157ZM66.0777 78.3107L62.7472 81.6412L55.5772 81.8109L54.4104 82.9776L57.9106 86.4778L55.5772 88.8112L46.2434 79.4774L48.5768 77.144L52.077 80.6441L53.2437 79.4774L53.4346 72.2861L56.7439 68.9769L56.6378 78.4168L66.0777 78.3107ZM64.3889 61.3318L71.3893 68.3322L67.8891 71.8324C67.1113 72.6102 66.3335 72.6102 65.5557 71.8324L59.722 65.9987L57.3886 68.3322L63.2222 74.1658C65.5557 76.4993 67.8891 76.4993 70.2226 74.1658L74.8895 69.4989L77.2229 71.8324L79.6624 69.3929L74.9955 64.726L73.7227 65.9987L66.7224 58.9984L64.3889 61.3318ZM87.305 57.0834L84.9715 59.4169L83.9745 58.4198C83.5785 60.428 82.8149 61.9978 81.6835 63.1292C79.35 65.4626 77.0166 65.4626 74.6831 63.1292L68.6374 57.0834L70.9708 54.7499L77.0166 60.7957C77.7803 61.5594 78.5581 61.5594 79.35 60.7957C80.7077 59.0421 81.1319 57.1329 80.6228 55.0681L75.6377 50.083L77.9712 47.7496L87.305 57.0834ZM82.2138 49.4466C80.2339 47.4667 80.2198 45.501 82.1714 43.5494L88.5778 37.143L97.9116 46.4768L95.5781 48.8103L92.078 45.3101L91.0385 46.3495L91.6113 52.7771L88.5778 55.8106L88.005 49.383C86.0534 51.3346 84.123 51.3558 82.2138 49.4466ZM88.5778 41.8099L84.5048 45.8828C84.1089 46.2788 84.123 46.6889 84.5473 47.1132C84.9008 47.4667 85.2756 47.4455 85.6716 47.0496L89.7445 42.9766L88.5778 41.8099Z" fill="#F8F200"/>
  <symbol/>
  <symbol id="monitorInfo1" viewBox="0 0 32 32">
      <g clip-path="url(#clip0_14_294)">
      <path d="M16 4C9.37333 4 4 9.37333 4 16C4 22.6267 9.37333 28 16 28C17.1067 28 18 27.1067 18 26C18 25.48 17.8 25.0133 17.48 24.6533C17.1733 24.3067 16.9733 23.84 16.9733 23.3333C16.9733 22.2267 17.8667 21.3333 18.9733 21.3333H21.3333C25.0133 21.3333 28 18.3467 28 14.6667C28 8.77333 22.6267 4 16 4ZM8.66667 16C7.56 16 6.66667 15.1067 6.66667 14C6.66667 12.8933 7.56 12 8.66667 12C9.77333 12 10.6667 12.8933 10.6667 14C10.6667 15.1067 9.77333 16 8.66667 16ZM12.6667 10.6667C11.56 10.6667 10.6667 9.77333 10.6667 8.66667C10.6667 7.56 11.56 6.66667 12.6667 6.66667C13.7733 6.66667 14.6667 7.56 14.6667 8.66667C14.6667 9.77333 13.7733 10.6667 12.6667 10.6667ZM19.3333 10.6667C18.2267 10.6667 17.3333 9.77333 17.3333 8.66667C17.3333 7.56 18.2267 6.66667 19.3333 6.66667C20.44 6.66667 21.3333 7.56 21.3333 8.66667C21.3333 9.77333 20.44 10.6667 19.3333 10.6667ZM23.3333 16C22.2267 16 21.3333 15.1067 21.3333 14C21.3333 12.8933 22.2267 12 23.3333 12C24.44 12 25.3333 12.8933 25.3333 14C25.3333 15.1067 24.44 16 23.3333 16Z" fill="black"/>
      </g>
      <defs>
      <clipPath id="clip0_14_294">
      <rect width="32" height="32" fill="white"/>
      </clipPath>
      </defs>
  <symbol/>
  <symbol id="monitorInfo2" viewBox="0 0 32 32">
      <g clip-path="url(#clip0_14_306)">
      <path d="M25.3334 11.9999L27 8.33325L30.6667 6.66658L27 4.99992L25.3334 1.33325L23.6667 4.99992L20 6.66658L23.6667 8.33325L25.3334 11.9999ZM15.3334 12.6666L12 5.33325L8.66671 12.6666L1.33337 15.9999L8.66671 19.3333L12 26.6666L15.3334 19.3333L22.6667 15.9999L15.3334 12.6666ZM25.3334 19.9999L23.6667 23.6666L20 25.3333L23.6667 26.9999L25.3334 30.6666L27 26.9999L30.6667 25.3333L27 23.6666L25.3334 19.9999Z" fill="black"/>
      </g>
      <defs>
      <clipPath id="clip0_14_306">
      <rect width="32" height="32" fill="white"/>
      </clipPath>
      </defs>
  <symbol/>
  <symbol id="monitorInfo3" viewBox="0 0 32 32">
      <g clip-path="url(#clip0_14_314)">
      <path d="M18.6666 2.66675H5.33329C3.85329 2.66675 2.66663 3.86675 2.66663 5.33341V18.6667H5.33329V5.33341H18.6666V2.66675ZM24 8.00008H10.6666C9.18663 8.00008 7.99996 9.20008 7.99996 10.6667V24.0001H10.6666V10.6667H24V8.00008ZM26.6666 13.3334H16C14.52 13.3334 13.3333 14.5334 13.3333 16.0001V26.6667C13.3333 28.1334 14.52 29.3334 16 29.3334H26.6666C28.1333 29.3334 29.3333 28.1334 29.3333 26.6667V16.0001C29.3333 14.5334 28.1333 13.3334 26.6666 13.3334Z" fill="black"/>
      </g>
      <defs>
      <clipPath id="clip0_14_314">
      <rect width="32" height="32" fill="white"/>
      </clipPath>
      </defs>
  <symbol/>
  <symbol id="disc" viewBox="0 0 32 32">
      <g clip-path="url(#clip0_15_32)">
      <path fill-rule="evenodd" clip-rule="evenodd" d="M29.3334 16.0001C29.3334 23.3639 23.3639 29.3334 16.0001 29.3334C8.63628 29.3334 2.66675 23.3639 2.66675 16.0001C2.66675 8.63628 8.63628 2.66675 16.0001 2.66675C23.3639 2.66675 29.3334 8.63628 29.3334 16.0001ZM19 16.0001C19 17.6569 17.6569 19.0001 16 19.0001C14.3431 19.0001 13 17.6569 13 16.0001C13 14.3432 14.3431 13.0001 16 13.0001C17.6569 13.0001 19 14.3432 19 16.0001Z" fill="#F8F200"/>
      </g>
      <defs>
      <clipPath id="clip0_15_32">
      <rect width="32" height="32" fill="white"/>
      </clipPath>
      </defs>
  <symbol/>
  <symbol id="case" viewBox="0 0 32 32">
      <path d="M25.3333 4H6.66667C5.18667 4 4 5.2 4 6.66667V25.3333C4 26.8 5.18667 28 6.66667 28H25.3333C26.8 28 28 26.8 28 25.3333V6.66667C28 5.2 26.8133 4 25.3333 4ZM25.3333 25.3333H6.66667V9.33333H25.3333V25.3333ZM22.6667 16H9.33333V13.3333H22.6667V16ZM17.3333 21.3333H9.33333V18.6667H17.3333V21.3333Z" fill="#F8F200"/>
  <symbol/>
  <symbol id="catalog" viewBox="0 0 32 32">
      <path d="M27.3333 19.3334V3.33341C27.3333 1.86675 26.1333 0.666748 24.6666 0.666748H8.66663C7.19996 0.666748 5.99996 1.86675 5.99996 3.33341V19.3334C5.99996 20.8001 7.19996 22.0001 8.66663 22.0001H24.6666C26.1333 22.0001 27.3333 20.8001 27.3333 19.3334ZM12.6666 14.0001L15.3733 17.6134L19.3333 12.6667L24.6666 19.3334H8.66663L12.6666 14.0001ZM0.666626 6.00008V24.6667C0.666626 26.1334 1.86663 27.3334 3.33329 27.3334H22V24.6667H3.33329V6.00008H0.666626Z" fill="#F8F200"/>
  <symbol/>
</svg>